<svg width="130" height="25" viewBox="0 0 130 25" fill="none" xmlns="http://www.w3.org/2000/svg">
<path d="M12.3316 7.92621C12.3316 8.86323 12.1164 9.72345 11.6862 10.5069C11.2559 11.2749 10.5952 11.897 9.7039 12.3732C8.81265 12.8494 7.70627 13.0875 6.38475 13.0875H3.94149V18.894H0V2.71884H6.38475C7.67553 2.71884 8.76655 2.94157 9.6578 3.38704C10.5491 3.83251 11.2175 4.44695 11.6631 5.23036C12.1087 6.01377 12.3316 6.91239 12.3316 7.92621ZM6.08511 9.95386C6.83806 9.95386 7.39894 9.77721 7.76773 9.42391C8.13653 9.07061 8.32092 8.57137 8.32092 7.92621C8.32092 7.28105 8.13653 6.78182 7.76773 6.42851C7.39894 6.07521 6.83806 5.89856 6.08511 5.89856H3.94149V9.95386H6.08511Z" fill="white"/>
<path d="M19.6158 19.0783C18.494 19.0783 17.4952 18.8863 16.6193 18.5022C15.7434 18.1182 15.052 17.596 14.5449 16.9354C14.0378 16.2595 13.7535 15.5069 13.692 14.6774H17.5874C17.6335 15.1228 17.841 15.4838 18.2098 15.7603C18.5786 16.0368 19.0319 16.1751 19.5697 16.1751C20.0614 16.1751 20.4379 16.0829 20.6991 15.8986C20.9757 15.6989 21.114 15.4454 21.114 15.1382C21.114 14.7695 20.9219 14.5007 20.5378 14.3317C20.1536 14.1474 19.5313 13.9477 18.6708 13.7327C17.7488 13.5176 16.9804 13.2949 16.3658 13.0645C15.7511 12.8187 15.221 12.4423 14.7754 11.9354C14.3297 11.4132 14.1069 10.7142 14.1069 9.83865C14.1069 9.10133 14.3067 8.43312 14.7062 7.83405C15.1211 7.21961 15.7204 6.73573 16.5041 6.38243C17.3031 6.02913 18.2482 5.85248 19.3392 5.85248C20.9527 5.85248 22.2204 6.25186 23.1424 7.05064C24.0797 7.84941 24.6176 8.90931 24.7559 10.2304H21.114C21.0526 9.78489 20.8528 9.43159 20.5147 9.17045C20.192 8.90931 19.7618 8.77875 19.2239 8.77875C18.763 8.77875 18.4095 8.87091 18.1637 9.05524C17.9178 9.22421 17.7949 9.46231 17.7949 9.76953C17.7949 10.1382 17.9869 10.4147 18.3711 10.599C18.7706 10.7834 19.3853 10.9677 20.2151 11.152C21.1678 11.3978 21.9438 11.6436 22.5431 11.8893C23.1424 12.1198 23.6648 12.5038 24.1105 13.0414C24.5715 13.5637 24.8096 14.2703 24.825 15.1612C24.825 15.9139 24.6099 16.5898 24.1796 17.1889C23.7647 17.7726 23.1578 18.2334 22.3587 18.5714C21.575 18.9093 20.6607 19.0783 19.6158 19.0783Z" fill="white"/>
<path d="M40.3747 6.03681L32.3073 24.9999H28.0662L31.0165 18.4562L25.7843 6.03681H30.1868L33.1602 14.0783L36.1105 6.03681H40.3747Z" fill="white"/>
<path d="M41.0163 12.4654C41.0163 11.129 41.2852 9.96154 41.823 8.96308C42.3762 7.96461 43.1369 7.19656 44.105 6.65893C45.0884 6.12129 46.2102 5.85248 47.4702 5.85248C49.0837 5.85248 50.4282 6.27491 51.5039 7.11976C52.5949 7.96461 53.3095 9.15509 53.6475 10.6912H49.4525C49.0991 9.70809 48.4152 9.21653 47.4011 9.21653C46.6788 9.21653 46.1026 9.50071 45.6723 10.0691C45.2421 10.6221 45.0269 11.4208 45.0269 12.4654C45.0269 13.5099 45.2421 14.3164 45.6723 14.8847C46.1026 15.4377 46.6788 15.7142 47.4011 15.7142C48.4152 15.7142 49.0991 15.2227 49.4525 14.2396H53.6475C53.3095 15.745 52.5949 16.9277 51.5039 17.788C50.4129 18.6482 49.0683 19.0783 47.4702 19.0783C46.2102 19.0783 45.0884 18.8095 44.105 18.2718C43.1369 17.7342 42.3762 16.9662 41.823 15.9677C41.2852 14.9692 41.0163 13.8018 41.0163 12.4654Z" fill="white"/>
<path d="M63.6619 5.89856C65.137 5.89856 66.3203 6.39011 67.2115 7.37322C68.1028 8.34096 68.5484 9.67736 68.5484 11.3824V18.894H64.6299V11.9124C64.6299 11.0522 64.4071 10.384 63.9615 9.90778C63.5159 9.43159 62.9166 9.19349 62.1636 9.19349C61.4107 9.19349 60.8114 9.43159 60.3658 9.90778C59.9201 10.384 59.6973 11.0522 59.6973 11.9124V18.894H55.7558V1.84326H59.6973V7.76492C60.0968 7.19656 60.6424 6.74341 61.3338 6.40547C62.0253 6.06753 62.8013 5.89856 63.6619 5.89856Z" fill="white"/>
<path d="M77.1419 19.0783C75.8819 19.0783 74.7448 18.8095 73.7306 18.2718C72.7318 17.7342 71.9404 16.9662 71.3565 15.9677C70.7879 14.9692 70.5036 13.8018 70.5036 12.4654C70.5036 11.1443 70.7956 9.98458 71.3795 8.98612C71.9635 7.97229 72.7625 7.19656 73.7767 6.65893C74.7909 6.12129 75.928 5.85248 77.188 5.85248C78.4481 5.85248 79.5852 6.12129 80.5994 6.65893C81.6136 7.19656 82.4126 7.97229 82.9966 8.98612C83.5805 9.98458 83.8724 11.1443 83.8724 12.4654C83.8724 13.7864 83.5728 14.9539 82.9735 15.9677C82.3896 16.9662 81.5828 17.7342 80.5533 18.2718C79.5391 18.8095 78.402 19.0783 77.1419 19.0783ZM77.1419 15.6681C77.8949 15.6681 78.5326 15.3917 79.0551 14.8387C79.5929 14.2857 79.8618 13.4946 79.8618 12.4654C79.8618 11.4362 79.6006 10.6451 79.0781 10.0921C78.571 9.53911 77.941 9.26262 77.188 9.26262C76.4197 9.26262 75.782 9.53911 75.2749 10.0921C74.7678 10.6297 74.5143 11.4208 74.5143 12.4654C74.5143 13.4946 74.7601 14.2857 75.2519 14.8387C75.759 15.3917 76.389 15.6681 77.1419 15.6681Z" fill="white"/>
<path d="M100.418 16.6949H92.9587L91.7629 20.2765H86.6667L93.8982 0H99.5354L106.767 20.2765H101.614L100.418 16.6949ZM99.1653 12.8822L96.6883 5.45906L94.2399 12.8822H99.1653Z" fill="url(#paint0_linear_57_54)"/>
<path d="M113.836 6.84548C114.406 5.95971 115.117 5.2665 115.972 4.76584C116.826 4.24593 117.775 3.98598 118.819 3.98598V9.21396H117.481C116.266 9.21396 115.355 9.48355 114.747 10.0227C114.14 10.5426 113.836 11.4669 113.836 12.7956V20.2765H108.968V4.15928H113.836V6.84548Z" fill="url(#paint1_linear_57_54)"/>
<path d="M130 16.0883V20.2765H127.523C125.758 20.2765 124.382 19.8432 123.395 18.9767C122.408 18.0909 121.914 16.6564 121.914 14.673V8.2608H119.978V4.15928H121.914V0.231071H126.783V4.15928H129.972V8.2608H126.783V14.7308C126.783 15.2122 126.897 15.5588 127.124 15.7706C127.352 15.9824 127.732 16.0883 128.263 16.0883H130Z" fill="url(#paint2_linear_57_54)"/>
<defs>
<linearGradient id="paint0_linear_57_54" x1="123.5" y1="-9.33623e-07" x2="115.023" y2="26.8377" gradientUnits="userSpaceOnUse">
<stop stop-color="#B75CFF"/>
<stop offset="1" stop-color="#671AE4"/>
</linearGradient>
<linearGradient id="paint1_linear_57_54" x1="123.5" y1="-9.33623e-07" x2="115.023" y2="26.8377" gradientUnits="userSpaceOnUse">
<stop stop-color="#B75CFF"/>
<stop offset="1" stop-color="#671AE4"/>
</linearGradient>
<linearGradient id="paint2_linear_57_54" x1="123.5" y1="-9.33623e-07" x2="115.023" y2="26.8377" gradientUnits="userSpaceOnUse">
<stop stop-color="#B75CFF"/>
<stop offset="1" stop-color="#671AE4"/>
</linearGradient>
</defs>
</svg>
